<svg width="20px" height="20px" version="1.1" viewBox="0 -2 44 44" xmlns="http://www.w3.org/2000/svg">
    <g fill="none" fill-rule="evenodd">
        <g transform="translate(-702 -265)" fill="#ffffff">
            <path
                d="m746 305h-9.7246v-14.062c0-3.6806-1.5212-6.1932-4.8662-6.1932-2.5586 0-3.9814 1.6956-4.6437 3.3297-0.24835 0.58654-0.20955 1.4036-0.20955 2.2207v14.704h-9.6341s0.12418-24.909 0-27.173h9.6341v4.2646c0.56914-1.8646 3.6477-4.5258 8.5604-4.5258 6.095 0 10.884 3.9086 10.884 12.325v15.109zm-38.821-30.572h-0.062089c-3.1044 0-5.1171-2.0772-5.1171-4.7103 0-2.6843 2.0722-4.7179 5.2387-4.7179 3.1639 0 5.1094 2.0286 5.1714 4.7103 0 2.633-2.0075 4.7179-5.231 4.7179zm-4.0694 3.3989h8.576v27.173h-8.576v-27.173z">
            </path>
        </g>
    </g>
</svg>