<svg class="svg" width="25" height="23" viewBox="0 0 25 23" fill="none" xmlns="http://www.w3.org/2000/svg">
    <path
        d="M16.2827 19.9554C19.6809 16.5597 21.2023 13.1934 21.7707 9.29296C20.8159 9.76475 19.7334 9.91263 18.687 9.7142C17.6407 9.51577 16.6875 8.98183 15.9717 8.19323C15.2559 7.40463 14.8166 6.40429 14.7201 5.34367C14.6237 4.28304 14.8755 3.21987 15.4373 2.31511C15.9991 1.41036 16.8404 0.71327 17.8338 0.329389C18.8272 -0.0544925 19.9186 -0.104268 20.9429 0.187599C21.9671 0.479466 22.8683 1.09708 23.5102 1.94695C24.152 2.79681 24.4995 3.83266 24.5 4.89766C24.4976 11.2481 23.2064 16.496 18.0149 21.69C17.7848 21.92 17.4729 22.0492 17.1476 22.0492C16.8223 22.0492 16.5103 21.92 16.2803 21.69C16.0502 21.4599 15.921 21.148 15.921 20.8227C15.921 20.4974 16.0502 20.1854 16.2803 19.9554H16.2827ZM1.5827 19.9554C4.98085 16.5597 6.50475 13.1934 7.0707 9.29296C6.11591 9.76475 5.03339 9.91263 3.98704 9.7142C2.94069 9.51577 1.98747 8.98183 1.2717 8.19323C0.555922 7.40463 0.116562 6.40429 0.0201324 5.34367C-0.0762975 4.28304 0.175452 3.21987 0.73727 2.31511C1.29909 1.41036 2.14038 0.71327 3.13379 0.329389C4.1272 -0.0544925 5.21864 -0.104268 6.24286 0.187599C7.26709 0.479466 8.16834 1.09708 8.81018 1.94695C9.45202 2.79681 9.79949 3.83266 9.8 4.89766C9.79755 11.2481 8.5064 16.496 3.31485 21.69C3.08483 21.92 2.77285 22.0492 2.44755 22.0492C2.12225 22.0492 1.81028 21.92 1.58025 21.69C1.35023 21.4599 1.22101 21.148 1.22101 20.8227C1.22101 20.4974 1.35023 20.1854 1.58025 19.9554H1.5827Z"
        fill="#80756B" fill-opacity="0.53"></path>
</svg>