<svg width="20px" height="20px" version="1.1" viewBox="0 -4 48 48" xmlns="http://www.w3.org/2000/svg">
    <g fill="none" fill-rule="evenodd">
        <g transform="translate(-300 -164)" fill="#ffffff">
            <path
                d="m348 168.74c-1.7637 0.80318-3.6626 1.3463-5.6545 1.589 2.0342-1.2481 3.595-3.2272 4.3303-5.5847-1.9046 1.1557-4.0092 1.9964-6.2574 2.4471-1.7919-1.9617-4.3529-3.1867-7.1872-3.1867-5.4348 0-9.844 4.5215-9.844 10.098 0 0.79162 0.084522 1.5601 0.25357 2.2997-8.1845-0.42181-15.439-4.4377-20.299-10.554-0.84804 1.4966-1.3326 3.2329-1.3326 5.082 0 3.5016 1.7383 6.593 4.3811 8.4045-1.6116-0.049115-3.1329-0.50849-4.4628-1.2597v0.12423c0 4.8942 3.395 8.9765 7.9028 9.901-0.8255 0.23691-1.6961 0.35536-2.5948 0.35536-0.63392 0-1.2537-0.060671-1.8538-0.17913 1.2537 4.0101 4.8882 6.931 9.1988 7.009-3.3696 2.71-7.6182 4.325-12.23 4.325-0.79451 0-1.5806-0.046226-2.3497-0.13868 4.3585 2.8602 9.5369 4.533 15.096 4.533 18.116 0 28.019-15.385 28.019-28.73 0-0.43915-0.008452-0.8783-0.025357-1.3088 1.9243-1.4243 3.595-3.2012 4.9107-5.2264">
            </path>
        </g>
    </g>
</svg>